<svg width="579" height="702" viewBox="0 0 579 702" fill="none" xmlns="http://www.w3.org/2000/svg">
<path d="M-91.1863 639.173C-184.145 568.127 -242.305 450.705 -235.454 333.906C-229.195 227.195 -127.061 163.234 -58.4614 81.2539C10.7357 -1.44005 55.3762 -116.74 160.755 -139.584C274.052 -164.144 395.315 -115.818 478.593 -35.1692C557.49 41.2366 578.862 155.625 579 265.455C579.125 365.249 542.628 458.505 479.309 535.638C414.925 614.066 330.317 671.887 230.478 690.006C119.445 710.156 -1.52673 707.697 -91.1863 639.173Z" fill="#F4FCFF"/>
<path d="M-25.2998 578.178C-93.4848 526.033 -136.121 439.855 -131.1 354.205C-128.821 315.329 -109.096 284.157 -83.4518 255.051C-71.7099 241.723 -58.7645 228.869 -45.7168 215.914C-44.5142 214.72 -43.3107 213.525 -42.1071 212.328C-27.8625 198.169 -13.6246 183.833 -0.928274 168.65C11.8811 153.333 23.5433 136.518 35.0182 119.7C36.1341 118.065 37.2482 116.429 38.3613 114.795C48.7085 99.6048 58.9783 84.5283 69.9234 70.5761C94.1657 39.6736 121.548 14.5183 159.894 6.20035C242.833 -11.7904 331.765 23.6027 392.914 82.858C450.648 138.804 466.398 222.688 466.5 303.61C466.592 376.867 439.82 445.349 393.326 502.022C346.023 559.679 283.927 602.11 210.724 615.403C128.977 630.248 40.3062 628.351 -25.2998 578.178Z" stroke="white" stroke-width="3"/>
<path d="M58.3657 476.408C16.0724 444.059 -10.3646 390.597 -7.25203 337.49C-5.84483 313.48 6.3326 294.197 22.2588 276.118C29.5527 267.838 37.5953 259.851 45.7176 251.784C46.4651 251.042 47.2134 250.299 47.9618 249.555C56.8254 240.743 65.7028 231.803 73.6225 222.331C81.6136 212.774 88.8849 202.288 96.0252 191.82C96.7195 190.803 97.4125 189.785 98.1049 188.768C104.546 179.312 110.926 169.944 117.724 161.276C132.78 142.081 149.717 126.548 173.387 121.413C224.769 110.265 279.927 132.193 317.88 168.977C353.639 203.635 363.437 255.647 363.5 305.967C363.557 351.42 346.95 393.918 318.092 429.099C288.723 464.904 250.192 491.225 204.797 499.47C153.976 508.7 98.999 507.488 58.3657 476.408Z" stroke="white" stroke-width="3"/>
<path d="M112.514 401.184C89.3826 383.513 74.9352 354.312 76.6354 325.338C77.3974 312.352 83.9884 301.885 92.7224 291.982C96.7241 287.445 101.138 283.067 105.615 278.626C106.026 278.218 106.437 277.81 106.849 277.401C111.73 272.555 116.64 267.617 121.025 262.379C125.45 257.093 129.472 251.299 133.404 245.542C133.787 244.982 134.168 244.423 134.549 243.864C138.099 238.658 141.6 233.524 145.33 228.775C153.586 218.261 162.792 209.863 175.602 207.087C203.63 201.014 233.791 212.958 254.578 233.079C274.073 251.951 279.465 280.328 279.5 307.957C279.531 332.79 270.448 356.021 254.643 375.266C238.545 394.867 217.455 409.242 192.64 413.743C164.706 418.811 134.665 418.107 112.514 401.184Z" stroke="white" stroke-width="3"/>
</svg>
