<svg width="188" height="188" viewBox="0 0 188 188" fill="none" xmlns="http://www.w3.org/2000/svg">
<g filter="url(#filter0_d)">
<rect x="36" y="32" width="116" height="116" rx="20" fill="white"/>
</g>
<g clip-path="url(#clip0)">
<path d="M65.1587 91.8803H61.2283C60.552 91.8815 59.9713 92.3615 59.8428 93.0255L53.6504 124.808C53.4897 125.638 53.7091 126.496 54.2483 127.148C54.7875 127.799 55.59 128.175 56.4356 128.172H86.9311C86.9311 129.728 90.098 131 94.0001 131C97.9021 131 101.069 129.728 101.069 128.172H131.565C132.41 128.175 133.213 127.799 133.752 127.148C134.291 126.496 134.51 125.638 134.35 124.808L128.157 93.0255C128.029 92.3615 127.448 91.8815 126.772 91.8803H65.1587Z" fill="#E64C3C"/>
<path d="M94.0001 95.9945V122.517C91.9317 121.619 89.776 120.937 87.5673 120.481C79.1718 118.656 70.4416 119.1 62.2746 121.768C61.8051 121.911 61.295 121.803 60.9244 121.481C60.5538 121.159 60.3749 120.669 60.4508 120.184L65.1587 91.8804L65.5546 89.4911C65.6559 88.8847 66.1346 88.4117 66.7421 88.3176C67.7035 88.1762 68.6932 88.0349 69.6828 87.9218C71.4104 91.28 74.8697 93.3916 78.6463 93.3931C78.9008 93.3931 79.1411 93.379 79.3814 93.3649C80.3229 93.2914 81.2502 93.0917 82.1383 92.7711C82.1413 92.8011 82.1509 92.8301 82.1666 92.8559C83.2245 95.8188 86.033 97.7949 89.179 97.79C90.9506 97.7959 92.6639 97.1578 94.0001 95.9945Z" fill="#F5EFCA"/>
<path d="M125.726 121.768C117.559 119.1 108.828 118.656 100.433 120.481C98.2241 120.937 96.0684 121.619 94 122.517V95.9945C94.2973 95.7514 94.5718 95.4817 94.82 95.1886C96.2325 95.7505 97.7391 96.0384 99.2593 96.0369H99.3441C99.4176 97.0479 99.8029 98.0111 100.447 98.7938C101.819 100.15 103.535 101.108 105.409 101.565C106.77 101.999 107.983 102.802 108.916 103.883C109.747 104.913 111.155 105.275 112.379 104.774C113.457 104.308 114.157 103.248 114.161 102.074C114.162 101.767 114.114 101.461 114.019 101.169C113.878 100.731 113.722 100.292 113.539 99.8683C113.184 98.9923 112.718 98.1655 112.153 97.4083C114.957 95.8918 116.926 93.1902 117.511 90.0566C117.554 90 117.61 89.9435 117.653 89.8869C118.137 89.3178 118.532 88.6791 118.826 87.9924C119.646 88.0914 120.452 88.1904 121.258 88.3176C121.865 88.4117 122.344 88.8847 122.446 89.4911L122.841 91.8804L127.549 120.185C127.625 120.669 127.446 121.159 127.076 121.481C126.705 121.803 126.195 121.911 125.726 121.768Z" fill="#F9EAB0"/>
<path d="M101.069 128.172C101.069 129.728 97.9022 131 94.0001 131C90.098 131 86.9312 129.728 86.9312 128.172L87.5674 120.481C89.776 120.937 91.9317 121.619 94.0001 122.517C96.0685 121.619 98.2242 120.937 100.433 120.481L101.069 128.172Z" fill="#C03A2B"/>
<path d="M119.448 85.0376C119.447 86.0549 119.235 87.0609 118.826 87.9924C118.532 88.6791 118.137 89.3177 117.653 89.8869C117.61 89.9434 117.554 90 117.511 90.0565C116.926 93.1901 114.957 95.8918 112.153 97.4083C112.719 98.1655 113.184 98.9923 113.539 99.8683C113.723 100.292 113.878 100.731 114.019 101.169C114.115 101.461 114.162 101.767 114.161 102.074C114.157 103.248 113.457 104.308 112.379 104.774C111.155 105.275 109.747 104.913 108.916 103.883C107.983 102.802 106.77 101.999 105.409 101.565C103.535 101.108 101.819 100.15 100.447 98.7938C99.803 98.0111 99.4177 97.0478 99.3443 96.0369H99.2594C97.7392 96.0383 96.2327 95.7504 94.8201 95.1886C94.5719 95.4816 94.2974 95.7514 94.0001 95.9945C92.664 97.1577 90.9506 97.7958 89.1791 97.79C86.033 97.7949 83.2245 95.8187 82.1667 92.8558C82.151 92.83 82.1413 92.8011 82.1384 92.771C81.2502 93.0916 80.3229 93.2913 79.3815 93.3648C79.1412 93.3789 78.9008 93.3931 78.6463 93.3931C74.8252 93.3904 71.3327 91.2319 69.6214 87.8154C67.9102 84.3989 68.2732 80.3092 70.5594 77.2476C70.3894 76.7859 70.3032 76.2975 70.3049 75.8055C70.2964 73.7161 71.764 71.9113 73.8112 71.4934C73.8188 71.4857 73.8287 71.4808 73.8394 71.4793C73.8253 71.3096 73.8112 71.14 73.8112 70.9562C73.8093 70.1721 73.9731 69.3964 74.2918 68.68C75.1939 66.5937 77.2499 65.2434 79.5229 65.2445C80.3801 65.2404 81.2267 65.4339 81.997 65.81C83.5021 63.2759 86.2317 61.723 89.1791 61.7241C91.2013 61.7168 93.1549 62.4569 94.6646 63.8024C95.5313 62.4044 97.1077 61.6094 98.747 61.7435C100.386 61.8776 101.813 62.9184 102.44 64.4386C102.844 64.3935 103.25 64.3699 103.656 64.3679C109.134 64.377 113.693 68.5792 114.147 74.0383H114.189C115.354 74.0382 116.471 74.5019 117.293 75.3269C118.116 76.1519 118.576 77.2703 118.572 78.4351C118.569 79.1969 118.375 79.9456 118.006 80.6124C118.945 81.897 119.45 83.4468 119.448 85.0376Z" fill="#FB7B76"/>
<path d="M94 53.2414C93.2192 53.2414 92.5862 52.6084 92.5862 51.8276V50.4138C92.5862 49.633 93.2192 49 94 49C94.7808 49 95.4138 49.633 95.4138 50.4138V51.8276C95.4138 52.6084 94.7808 53.2414 94 53.2414Z" fill="#F0C419"/>
<path d="M116.786 62.9725C116.214 62.9723 115.699 62.6279 115.48 62.0997C115.261 61.5715 115.382 60.9635 115.787 60.5591L117.2 59.1453C117.555 58.7778 118.081 58.6304 118.575 58.7598C119.07 58.8892 119.456 59.2752 119.585 59.7695C119.714 60.2638 119.567 60.7895 119.199 61.1444L117.786 62.5582C117.521 62.8234 117.161 62.9724 116.786 62.9725Z" fill="#F0C419"/>
<path d="M71.2139 62.9725C70.839 62.9724 70.4794 62.8234 70.2143 62.5582L68.8005 61.1444C68.433 60.7895 68.2856 60.2638 68.415 59.7695C68.5444 59.2752 68.9304 58.8892 69.4247 58.7598C69.919 58.6304 70.4447 58.7778 70.7996 59.1453L72.2134 60.5591C72.6177 60.9635 72.7386 61.5715 72.5198 62.0997C72.301 62.6279 71.7856 62.9723 71.2139 62.9725Z" fill="#F0C419"/>
<path d="M82.0972 57.0233C81.5255 57.0234 81.0099 56.6791 80.7909 56.151L79.1679 52.2319C78.9615 51.763 79.025 51.2191 79.3338 50.8103C79.6426 50.4015 80.1483 50.1918 80.6558 50.262C81.1633 50.3323 81.5931 50.6716 81.7791 51.149L83.4036 55.068C83.5477 55.4146 83.5481 55.8043 83.4046 56.1512C83.2611 56.4981 82.9856 56.7737 82.6387 56.9172C82.4668 56.9873 82.2829 57.0233 82.0972 57.0233Z" fill="#F0C419"/>
<path d="M105.903 57.0233C105.717 57.0229 105.533 56.9864 105.361 56.9158C105.015 56.7723 104.739 56.4969 104.596 56.1504C104.453 55.8038 104.453 55.4145 104.596 55.068L106.221 51.149C106.407 50.6716 106.837 50.3323 107.344 50.262C107.852 50.1918 108.357 50.4015 108.666 50.8103C108.975 51.2191 109.038 51.763 108.832 52.2319L107.209 56.151C106.99 56.6791 106.475 57.0234 105.903 57.0233Z" fill="#F0C419"/>
<path d="M122.735 73.8573C122.059 73.8594 121.476 73.3825 121.344 72.7194C121.213 72.0563 121.569 71.3926 122.194 71.1358L126.113 69.5127C126.58 69.3195 127.114 69.39 127.515 69.6976C127.915 70.0052 128.121 70.5031 128.055 71.0039C127.989 71.5047 127.661 71.9322 127.194 72.1254L123.277 73.7485C123.105 73.82 122.921 73.857 122.735 73.8573Z" fill="#F0C419"/>
<path d="M65.2648 73.8573C65.0789 73.857 64.8949 73.82 64.7233 73.7485L60.8057 72.1254C60.339 71.9322 60.0108 71.5047 59.9448 71.0039C59.8787 70.5031 60.0849 70.0052 60.4856 69.6976C60.8862 69.39 61.4206 69.3195 61.8873 69.5127L65.8063 71.1358C66.4317 71.3926 66.7877 72.0563 66.6557 72.7194C66.5238 73.3825 65.9409 73.8594 65.2648 73.8573Z" fill="#F0C419"/>
<path d="M117.653 89.8869C117.611 89.9435 117.554 90 117.512 90.0566C117.262 91.4182 116.743 92.7161 115.985 93.8738C115.244 94.0839 114.478 94.1887 113.708 94.1849C112.307 94.1809 110.927 93.8467 109.679 93.2094C109.088 92.8933 108.534 92.514 108.025 92.0783C107.461 92.2967 106.862 92.4116 106.258 92.4176C104.39 92.4273 102.68 91.3746 101.847 89.7032C101.619 89.2511 101.651 88.7121 101.928 88.2892C102.206 87.8664 102.689 87.6238 103.194 87.653C103.699 87.6822 104.15 87.9787 104.377 88.4307C104.657 88.9668 105.151 89.3582 105.737 89.5067C106.323 89.6552 106.945 89.5467 107.445 89.2083C108.011 88.8224 108.349 88.1822 108.35 87.4976C108.352 87.1699 108.28 86.846 108.138 86.5504C107.853 85.8668 108.144 85.0793 108.805 84.7452C109.466 84.4111 110.273 84.6435 110.655 85.278C110.998 85.9674 111.178 86.7272 111.178 87.4976C111.166 88.4855 110.856 89.4467 110.287 90.2545C110.513 90.41 110.739 90.5656 110.966 90.6928C111.814 91.1295 112.754 91.3573 113.708 91.3573C115.159 91.3653 116.562 90.8423 117.653 89.8869Z" fill="#FF5364"/>
<path d="M100.362 84.3364C102.194 83.0745 103.453 81.1408 103.867 78.9555C103.972 78.4552 103.799 77.937 103.414 77.6004C103.03 77.2637 102.493 77.161 102.011 77.3318C101.529 77.5025 101.177 77.9201 101.09 78.4239C100.813 79.8821 99.9717 81.172 98.749 82.0135C96.3968 83.5977 93.2421 83.2381 91.3068 81.1652C90.7801 80.5874 89.8848 80.546 89.307 81.0726C88.7292 81.5993 88.6877 82.4946 89.2144 83.0724C90.4137 84.3966 91.9987 85.3105 93.7456 85.6851C92.9535 86.7984 91.6707 87.4583 90.3044 87.4552C89.5236 87.4552 88.8906 88.0882 88.8906 88.869C88.8906 89.6498 89.5236 90.2828 90.3044 90.2828C93.2312 90.2945 95.8573 88.4868 96.8913 85.7487C98.1387 85.5414 99.3243 85.059 100.362 84.3364Z" fill="#FF5364"/>
<path d="M113.539 99.8683C112.5 100.399 111.383 100.761 110.231 100.943C110.156 100.954 110.08 100.959 110.004 100.957C109.26 100.964 108.637 100.392 108.581 99.6494C108.525 98.9069 109.055 98.2482 109.792 98.1434C110.612 98.0194 111.408 97.7715 112.153 97.4083C112.719 98.1655 113.184 98.9923 113.539 99.8683Z" fill="#FF5364"/>
<path d="M82.0395 90C81.9682 90.3967 81.9303 90.7987 81.9264 91.2018C81.9236 91.7322 81.995 92.2604 82.1385 92.7711C81.2503 93.0917 80.323 93.2914 79.3816 93.3649C79.2007 92.6723 79.1057 91.96 79.0988 91.2442C76.6085 90.9726 74.7208 88.8717 74.7161 86.3666C74.7114 85.5792 75.3426 84.9354 76.1299 84.9245C76.5031 84.9223 76.8619 85.0686 77.1271 85.3311C77.3923 85.5937 77.5422 85.951 77.5437 86.3242V86.3666C77.5648 87.4838 78.4492 88.3929 79.5654 88.4449C79.7609 87.8072 80.0314 87.195 80.3713 86.6211C80.5611 86.2969 80.8738 86.063 81.2384 85.9726C81.603 85.8821 81.9888 85.9426 82.3082 86.1404C82.973 86.5513 83.1867 87.4187 82.7888 88.0914C82.4299 88.6791 82.1763 89.3251 82.0395 90Z" fill="#FF5364"/>
<path d="M103.063 98.2707C102.213 98.5425 101.336 98.718 100.447 98.7938C99.803 98.0111 99.4177 97.0479 99.3442 96.037C99.4811 96.0396 99.6179 96.0348 99.7542 96.0228C100.594 95.9695 101.424 95.8177 102.228 95.5704C102.716 95.4032 103.256 95.5146 103.638 95.8611C104.019 96.2077 104.182 96.7345 104.062 97.2359C103.943 97.7373 103.559 98.1339 103.063 98.2707Z" fill="#FF5364"/>
<path d="M90.8899 73.0345C90.8899 72.2537 90.2569 71.6207 89.4761 71.6207C85.886 71.6246 82.9766 74.534 82.9727 78.1242C82.9727 78.905 83.6056 79.538 84.3865 79.538C85.1673 79.538 85.8002 78.905 85.8002 78.1242C85.8002 77.1493 86.1875 76.2143 86.8769 75.525C87.5662 74.8356 88.5012 74.4483 89.4761 74.4483C90.2569 74.4483 90.8899 73.8153 90.8899 73.0345Z" fill="#FF5364"/>
<path d="M72.437 80.9843C72.1802 80.9846 71.9283 80.9141 71.7089 80.7807C70.543 80.0772 69.661 78.987 69.2163 77.7001C69.0013 77.0882 68.8918 76.4442 68.8926 75.7957C68.8926 72.5916 71.485 69.9915 74.6891 69.9822C76.5251 69.9751 78.2535 70.847 79.3391 72.3276C79.6404 72.7332 79.7024 73.2688 79.5018 73.7325C79.3012 74.1962 78.8684 74.5177 78.3665 74.5758C77.8646 74.6339 77.3698 74.4199 77.0685 74.0143C76.5144 73.2582 75.6322 72.8126 74.6948 72.8154C73.3566 72.8229 72.1867 73.7194 71.8314 75.0096C71.4761 76.2998 72.0222 77.6688 73.1679 78.3603C73.7127 78.6879 73.9718 79.3387 73.8013 79.9511C73.6309 80.5635 73.0726 80.9868 72.437 80.9857V80.9843Z" fill="#FF5364"/>
<path d="M102.776 67.5363C101.995 67.5363 101.362 66.9033 101.362 66.1225C101.362 64.48 100.03 63.1486 98.3879 63.1486C96.7455 63.1486 95.414 64.48 95.414 66.1225C95.414 66.9033 94.781 67.5363 94.0002 67.5363C93.2194 67.5363 92.5864 66.9033 92.5864 66.1225C92.5864 62.9184 95.1838 60.321 98.3879 60.321C101.592 60.321 104.189 62.9184 104.189 66.1225C104.189 66.4974 104.04 66.857 103.775 67.1222C103.51 67.3873 103.151 67.5363 102.776 67.5363Z" fill="#FF5364"/>
<path d="M116.037 83.8373C115.38 83.8308 114.815 83.3734 114.671 82.7329C114.528 82.0923 114.844 81.4371 115.435 81.1511C115.998 80.8863 116.466 80.4537 116.773 79.9126C117.493 78.6869 117.243 77.1234 116.177 76.1833C115.111 75.2433 113.528 75.1904 112.402 76.0572C111.777 76.5257 110.891 76.3991 110.423 75.7744C109.954 75.1498 110.081 74.2636 110.705 73.7951C111.695 73.0461 112.9 72.6374 114.141 72.6301C116.872 72.6116 119.248 74.4976 119.85 77.1621C120.451 79.8265 119.116 82.5503 116.642 83.7072C116.453 83.7953 116.246 83.8398 116.037 83.8373Z" fill="#FF5364"/>
</g>
<defs>
<filter id="filter0_d" x="0" y="0" width="188" height="188" filterUnits="userSpaceOnUse" color-interpolation-filters="sRGB">
<feFlood flood-opacity="0" result="BackgroundImageFix"/>
<feColorMatrix in="SourceAlpha" type="matrix" values="0 0 0 0 0 0 0 0 0 0 0 0 0 0 0 0 0 0 127 0"/>
<feOffset dy="4"/>
<feGaussianBlur stdDeviation="18"/>
<feColorMatrix type="matrix" values="0 0 0 0 0.958333 0 0 0 0 0.958333 0 0 0 0 0.958333 0 0 0 1 0"/>
<feBlend mode="normal" in2="BackgroundImageFix" result="effect1_dropShadow"/>
<feBlend mode="normal" in="SourceGraphic" in2="effect1_dropShadow" result="shape"/>
</filter>
<clipPath id="clip0">
<rect width="82" height="82" fill="white" transform="translate(53 49)"/>
</clipPath>
</defs>
</svg>
