<svg width="188" height="188" viewBox="0 0 188 188" fill="none" xmlns="http://www.w3.org/2000/svg">
<g filter="url(#filter0_d)">
<rect x="36" y="32" width="116" height="116" rx="20" fill="white"/>
</g>
<g clip-path="url(#clip0)">
<path d="M70.4582 100.447L71.2316 102.044C71.2316 102.044 83.4955 112.003 94 112.003C104.505 112.003 116.824 102.044 116.824 102.044L117.541 100.447H117.541C116.362 96.9234 114.914 92.0859 113.898 86.9766L111.654 85.7144H76.0164L74.1008 86.9761C73.0851 92.0855 71.6369 96.9232 70.458 100.447H70.4582Z" fill="#365E7D"/>
<path d="M80.8743 86.2565L81.6973 85.7144H76.0164L74.1008 86.9761C73.0851 92.0855 71.6369 96.9232 70.458 100.447H70.4582L71.2316 102.044C71.2316 102.044 73.1192 103.577 76.047 105.439C77.7629 99.7075 79.5128 93.1048 80.8743 86.2565Z" fill="#294B64"/>
<path d="M134.209 74.8599L96.0492 61.9634C94.7202 61.5143 93.2803 61.5143 91.9513 61.9634L53.7913 74.8599C52.8062 75.1929 52.7192 76.5525 53.6539 77.0081L91.1957 95.3111C92.9657 96.174 95.0346 96.174 96.8046 95.3111L134.346 77.0081C135.281 76.5525 135.194 75.1929 134.209 74.8599Z" fill="#477B9E"/>
<path d="M65.2033 77.0075C64.2684 76.5518 64.3554 75.1923 65.3407 74.8593L99.7747 63.2219L96.049 61.9627C94.7201 61.5135 93.2801 61.5135 91.9511 61.9627L53.7913 74.8593C52.8062 75.1923 52.7192 76.5518 53.6539 77.0075L91.1957 95.3105C92.9657 96.1734 95.0346 96.1734 96.8046 95.3105L99.7749 93.8623L65.2033 77.0075Z" fill="#3F6D8E"/>
<path d="M125.753 107.272C125.07 107.272 124.516 106.718 124.516 106.035V83.1501C124.516 82.5626 124.119 82.0487 123.551 81.9002L95.6234 74.5366C94.9626 74.3623 94.5681 73.6853 94.7424 73.0245C94.9166 72.3637 95.5931 71.9688 96.2544 72.1435L124.179 79.5064C125.834 79.9385 126.991 81.4371 126.991 83.1499V106.035C126.991 106.718 126.437 107.272 125.753 107.272Z" fill="#ECF4FF"/>
<path d="M127.92 108.786H123.587L123.072 116.799C123.029 117.463 123.541 118.025 124.188 118.025H127.319C127.966 118.025 128.478 117.463 128.435 116.799L127.92 108.786Z" fill="#FFD064"/>
<path d="M125.892 116.799L126.407 108.786H123.587L123.072 116.799C123.029 117.463 123.541 118.025 124.188 118.025H127.008C126.361 118.025 125.849 117.463 125.892 116.799Z" fill="#EBB044"/>
<path d="M126.756 103.026H124.751C123.752 103.026 122.934 103.844 122.934 104.843V108.45C122.934 108.778 123.2 109.044 123.528 109.044H127.979C128.307 109.044 128.573 108.778 128.573 108.45V104.843C128.573 103.844 127.756 103.026 126.756 103.026Z" fill="#FFE07D"/>
<path d="M126.124 108.449V104.843C126.124 104.051 126.638 103.375 127.349 103.128C127.163 103.063 126.964 103.026 126.757 103.026H124.751C123.752 103.026 122.934 103.844 122.934 104.843V108.449C122.934 108.778 123.2 109.043 123.528 109.043H126.718C126.39 109.043 126.124 108.778 126.124 108.449Z" fill="#FFD064"/>
<path d="M94.2553 69.8972C91.876 69.7531 89.9016 71.6399 89.9016 73.9879V74.0087C89.9069 75.0646 90.7916 75.9064 91.8477 75.9064H96.1528C97.1737 75.9064 98.1577 75.1165 98.0938 73.7871C97.9948 71.7195 96.3216 70.0223 94.2553 69.8972Z" fill="#3F6D8E"/>
<path d="M93.6141 74.0087C93.6141 74.0018 93.6141 73.995 93.6141 73.9879C93.6141 72.3956 94.5227 71.0165 95.8489 70.3379C95.3635 70.0894 94.8255 69.9318 94.2555 69.8972C91.8763 69.7531 89.9019 71.6399 89.9019 73.9879V74.0087C89.9071 75.0646 90.7918 75.9064 91.8479 75.9064H95.5602C94.5041 75.9064 93.6194 75.0646 93.6141 74.0087Z" fill="#365E7D"/>
<path d="M117.541 100.447C113.241 103.982 106.247 107.938 98.6921 110.373C95.6975 111.338 92.3785 111.363 89.3075 110.373C81.7695 107.944 74.7787 103.997 70.4583 100.447C70.045 101.682 69.6645 102.757 69.3477 103.624C68.8033 105.113 69.2722 106.787 70.5189 107.767C77.4259 113.196 84.7167 116.162 89.3075 117.641C90.8235 118.13 92.407 118.374 93.9997 118.374C95.5926 118.374 97.1759 118.13 98.692 117.641C103.283 116.162 110.573 113.196 117.481 107.767C118.727 106.787 119.196 105.113 118.652 103.624C118.335 102.757 117.955 101.682 117.541 100.447Z" fill="#FFE07D"/>
<path d="M76.3256 104.502C74.0695 103.162 72.0765 101.777 70.4581 100.447C70.0447 101.682 69.6644 102.757 69.3474 103.624C68.803 105.113 69.272 106.787 70.5186 107.767C71.8215 108.791 73.1378 109.727 74.4473 110.582C75.0578 108.691 75.6909 106.654 76.3256 104.502Z" fill="#FFD064"/>
</g>
<defs>
<filter id="filter0_d" x="0" y="0" width="188" height="188" filterUnits="userSpaceOnUse" color-interpolation-filters="sRGB">
<feFlood flood-opacity="0" result="BackgroundImageFix"/>
<feColorMatrix in="SourceAlpha" type="matrix" values="0 0 0 0 0 0 0 0 0 0 0 0 0 0 0 0 0 0 127 0"/>
<feOffset dy="4"/>
<feGaussianBlur stdDeviation="18"/>
<feColorMatrix type="matrix" values="0 0 0 0 0.958333 0 0 0 0 0.958333 0 0 0 0 0.958333 0 0 0 1 0"/>
<feBlend mode="normal" in2="BackgroundImageFix" result="effect1_dropShadow"/>
<feBlend mode="normal" in="SourceGraphic" in2="effect1_dropShadow" result="shape"/>
</filter>
<clipPath id="clip0">
<rect width="82" height="82" fill="white" transform="translate(53 49)"/>
</clipPath>
</defs>
</svg>
