<svg width="188" height="188" viewBox="0 0 188 188" fill="none" xmlns="http://www.w3.org/2000/svg">
<g filter="url(#filter0_d)">
<rect x="36" y="32" width="116" height="116" rx="20" fill="white"/>
</g>
<path d="M93.9999 129.658C115.902 129.658 133.658 111.903 133.658 90C133.658 68.0975 115.902 50.3419 93.9999 50.3419C72.0973 50.3419 54.3418 68.0975 54.3418 90C54.3418 111.903 72.0973 129.658 93.9999 129.658Z" fill="#FFDC64"/>
<path d="M93.9999 50.3419C72.0973 50.3419 54.3418 68.0974 54.3418 90C54.3418 107.027 65.0726 121.548 80.1404 127.169L108.266 127.015C123.12 121.286 133.658 106.873 133.658 90C133.658 68.0974 115.902 50.3419 93.9999 50.3419Z" fill="#FFDC64"/>
<path d="M96.8233 110.616V114.536C96.8233 115.99 95.6448 117.168 94.1913 117.168C92.7376 117.168 91.5593 115.99 91.5593 114.536V110.616H86.0093V123.188H102.578V110.616H96.8233Z" fill="#0037BD"/>
<path d="M131.693 60.1098H64.6093C62.2888 60.1098 60.4075 61.991 60.4075 64.3116V107.412C60.4075 109.732 62.2886 111.614 64.6093 111.614H131.693C133.519 111.614 135 110.133 135 108.306V63.4169C135 61.5905 133.519 60.1098 131.693 60.1098Z" fill="#265CDE"/>
<path d="M61.3023 108.306V63.4169C61.3023 61.5905 62.783 60.1098 64.6094 60.1098H56.3071C54.4807 60.1098 53 61.5905 53 63.4169V108.306C53 110.133 54.4807 111.613 56.3071 111.613H64.6094C62.783 111.613 61.3023 110.133 61.3023 108.306Z" fill="#0037BD"/>
<path d="M58.8574 66.0141H129.142V105.709H58.8574V66.0141Z" fill="white"/>
<path d="M67.1597 66.0141L66.4116 92.4552L67.1597 105.709H129.142V66.0141H67.1597Z" fill="white"/>
<path d="M87.5837 125.618L88.4436 129.27C90.2592 129.525 92.1141 129.658 94.0001 129.658C99.0291 129.658 103.838 128.72 108.265 127.012V121.966H88.4436L87.5837 125.618Z" fill="#265CDE"/>
<path d="M88.4437 121.966H80.1414V127.167C82.7867 128.154 85.5659 128.865 88.4437 129.27V121.966Z" fill="#0037BD"/>
<path d="M118.347 82.6062V79.6173H109.957L105.53 71.9483H94.9485L92.1495 76.796C91.9298 76.762 91.7047 76.7442 91.4757 76.7442C89.5884 76.7442 87.9809 77.9413 87.3707 79.6175H80.9749L77.932 84.8879C77.8818 84.8861 77.8317 84.884 77.7812 84.884C76.0768 84.884 74.6016 85.8618 73.8833 87.2865H66.9842V66.0236H58.8479V105.719H66.9842V96.8311C66.9842 93.2104 69.9193 90.2752 73.5401 90.2752C74.0022 92.1893 75.725 93.6116 77.781 93.6116C78.0066 93.6116 78.2279 93.5944 78.4443 93.5615L80.9748 97.9444H87.3208C87.9247 99.5417 89.4673 100.678 91.276 100.678C91.5429 100.678 91.8034 100.652 92.0565 100.605L94.9483 105.613H105.529L110.82 96.45L108.172 91.8643C108.749 91.1481 109.094 90.2385 109.094 89.2477C109.094 88.0805 108.615 87.0255 107.843 86.2675L109.957 82.6062H118.347ZM91.4064 92.2254C91.3629 92.2241 91.3198 92.222 91.276 92.222C89.4673 92.222 87.9246 93.3581 87.3208 94.9554H82.7005L81.0641 92.121C81.7367 91.3533 82.145 90.3484 82.145 89.2477C82.145 87.9724 81.5978 86.825 80.7253 86.0272L82.7005 82.6062H87.3707C87.981 84.2824 89.5886 85.4793 91.4757 85.4793C91.4802 85.4793 91.4845 85.479 91.4888 85.479L93.3952 88.7808L91.4064 92.2254ZM103.804 102.625H96.6742L94.6096 99.0486C95.1694 98.3316 95.5038 97.43 95.5038 96.45C95.5038 95.4698 95.1694 94.5683 94.6096 93.8513L96.6742 90.2754H100.867C101.325 92.0858 102.964 93.4256 104.917 93.4256C105.147 93.4256 105.372 93.4064 105.591 93.3708L107.369 96.4501L103.804 102.625ZM105.081 85.0743C105.027 85.0722 104.972 85.0701 104.917 85.0701C103.319 85.0701 101.931 85.968 101.228 87.2865H96.6741L94.7661 83.9819C95.4363 83.2143 95.8432 82.2108 95.8432 81.1117C95.8432 80.0127 95.4363 79.0092 94.7663 78.2415L96.6741 74.937H103.804L107.369 81.1117L105.081 85.0743Z" fill="#E8D6FF"/>
<path d="M90.0058 95.4442H79.4247L74.134 86.2807L79.4247 77.1172H90.0058L95.2964 86.2807L90.0058 95.4442ZM81.1504 92.4553H88.2802L91.8452 86.2805L88.2802 80.1059H81.1504L77.5854 86.2805L81.1504 92.4553Z" fill="#05ACFF"/>
<path d="M80.366 81.4642L81.1502 80.1061H83.1627C83.9882 80.1061 84.6572 79.4371 84.6572 78.6116C84.6572 77.7862 83.9882 77.1172 83.1627 77.1172H79.4246L77.7776 79.9697C77.2025 80.966 77.9214 82.2113 79.0719 82.2113C79.6057 82.2113 80.0991 81.9265 80.366 81.4642Z" fill="#05CDFF"/>
<path d="M107.544 77.1172H116.797V80.1061H107.544V77.1172Z" fill="#05CDFF"/>
<path d="M103.979 87.7751H93.3983L88.1077 78.6116L93.3983 69.4481H103.979L109.27 78.6116L103.979 87.7751ZM95.124 84.7862H102.254L105.819 78.6116L102.254 72.4369H95.124L91.559 78.6116L95.124 84.7862Z" fill="#05ACFF"/>
<path d="M103.979 103.113H93.3983L88.1077 93.9499L93.3983 84.7864H103.979L109.27 93.9499L103.979 103.113ZM95.124 100.124H102.254L105.819 93.9497L102.254 87.775H95.124L91.559 93.9497L95.124 100.124Z" fill="#05ACFF"/>
<path d="M64.9731 84.7862H75.8597V87.7751H64.9731V84.7862Z" fill="#05CDFF"/>
<path d="M76.231 91.1114C78.6411 91.1114 80.5949 89.1577 80.5949 86.7476C80.5949 84.3375 78.6411 82.3837 76.231 82.3837C73.8209 82.3837 71.8672 84.3375 71.8672 86.7476C71.8672 89.1577 73.8209 91.1114 76.231 91.1114Z" fill="#CD2846"/>
<path d="M76.2309 88.829C77.3805 88.829 78.3124 87.8971 78.3124 86.7475C78.3124 85.5979 77.3805 84.666 76.2309 84.666C75.0813 84.666 74.1494 85.5979 74.1494 86.7475C74.1494 87.8971 75.0813 88.829 76.2309 88.829Z" fill="#F5415F"/>
<path d="M89.7259 98.1775C92.0608 98.1775 93.9537 96.2847 93.9537 93.9497C93.9537 91.6147 92.0608 89.7219 89.7259 89.7219C87.3909 89.7219 85.498 91.6147 85.498 93.9497C85.498 96.2847 87.3909 98.1775 89.7259 98.1775Z" fill="#FFC305"/>
<path d="M89.7259 96.0689C90.8963 96.0689 91.8451 95.1201 91.8451 93.9497C91.8451 92.7793 90.8963 91.8305 89.7259 91.8305C88.5555 91.8305 87.6067 92.7793 87.6067 93.9497C87.6067 95.1201 88.5555 96.0689 89.7259 96.0689Z" fill="#FFDC64"/>
<path d="M89.9254 82.9791C92.3375 82.9791 94.2929 81.0237 94.2929 78.6116C94.2929 76.1995 92.3375 74.2441 89.9254 74.2441C87.5133 74.2441 85.5579 76.1995 85.5579 78.6116C85.5579 81.0237 87.5133 82.9791 89.9254 82.9791Z" fill="#0037BD"/>
<path d="M89.9256 80.4405C90.9356 80.4405 91.7544 79.6217 91.7544 78.6116C91.7544 77.6015 90.9356 76.7827 89.9256 76.7827C88.9155 76.7827 88.0967 77.6015 88.0967 78.6116C88.0967 79.6217 88.9155 80.4405 89.9256 80.4405Z" fill="#265CDE"/>
<path d="M103.366 90.9254C105.674 90.9254 107.544 89.0549 107.544 86.7476C107.544 84.4403 105.674 82.5698 103.366 82.5698C101.059 82.5698 99.1887 84.4403 99.1887 86.7476C99.1887 89.0549 101.059 90.9254 103.366 90.9254Z" fill="#CD2846"/>
<path d="M103.367 88.829C104.516 88.829 105.448 87.8971 105.448 86.7475C105.448 85.5979 104.516 84.666 103.367 84.666C102.217 84.666 101.285 85.5979 101.285 86.7475C101.285 87.8971 102.217 88.829 103.367 88.829Z" fill="#F5415F"/>
<path d="M126.178 109.969C126.973 109.969 127.618 109.325 127.618 108.529C127.618 107.734 126.973 107.09 126.178 107.09C125.383 107.09 124.739 107.734 124.739 108.529C124.739 109.325 125.383 109.969 126.178 109.969Z" fill="#0037BD"/>
<path d="M124.856 114.913H98.2962C96.4767 114.913 94.9964 113.433 94.9964 111.613H93.3359C93.3359 114.348 95.561 116.573 98.2962 116.573H123.437C123.925 116.033 124.399 115.48 124.856 114.913Z" fill="#00BEC2"/>
<path d="M104.989 111.613H106.649V121.946H104.989V111.613Z" fill="#F5415F"/>
<path d="M109.528 114.913H99.3258C98.8673 114.913 98.4956 115.285 98.4956 115.743C98.4956 116.202 98.8673 116.573 99.3258 116.573H109.528C109.987 116.573 110.359 116.202 110.359 115.743C110.359 115.285 109.987 114.913 109.528 114.913Z" fill="#5FD2D0"/>
<defs>
<filter id="filter0_d" x="0" y="0" width="188" height="188" filterUnits="userSpaceOnUse" color-interpolation-filters="sRGB">
<feFlood flood-opacity="0" result="BackgroundImageFix"/>
<feColorMatrix in="SourceAlpha" type="matrix" values="0 0 0 0 0 0 0 0 0 0 0 0 0 0 0 0 0 0 127 0"/>
<feOffset dy="4"/>
<feGaussianBlur stdDeviation="18"/>
<feColorMatrix type="matrix" values="0 0 0 0 0.958333 0 0 0 0 0.958333 0 0 0 0 0.958333 0 0 0 1 0"/>
<feBlend mode="normal" in2="BackgroundImageFix" result="effect1_dropShadow"/>
<feBlend mode="normal" in="SourceGraphic" in2="effect1_dropShadow" result="shape"/>
</filter>
</defs>
</svg>
