<svg width="188" height="188" viewBox="0 0 188 188" fill="none" xmlns="http://www.w3.org/2000/svg">
<g filter="url(#filter0_d)">
<rect x="36" y="32" width="116" height="116" rx="20" fill="white"/>
</g>
<path d="M93.9999 131C116.644 131 135 112.644 135 89.9999C135 67.3563 116.644 49 93.9999 49C71.3563 49 53 67.3563 53 89.9999C53 112.644 71.3563 131 93.9999 131Z" fill="#5C5E70"/>
<path d="M74.8933 49.0213C63.0658 49.2745 53.3853 58.8505 53.0115 70.6746C52.8257 76.5488 54.9045 81.9351 58.4403 86.0271C60.0328 87.8698 60.4873 90.4376 59.6681 92.7311L58.1956 96.854C57.7167 98.195 59.2698 99.3412 60.4101 98.4884L65.6327 94.5825C67.1867 93.4202 69.16 92.988 71.0639 93.3631C73.0465 93.7537 75.1225 93.8828 77.2575 93.7063C88.4905 92.7767 97.3492 83.487 97.7528 72.2226C98.2155 59.3212 87.7544 48.746 74.8933 49.0213Z" fill="#FF525D"/>
<path d="M125.842 106.621C123.947 108.907 123.346 111.996 124.344 114.791L125.052 116.774C124.158 117.81 123.213 118.801 122.22 119.743L117.822 116.458C115.966 115.074 113.62 114.525 111.344 114.948C109.876 115.223 108.233 115.466 107.04 115.466C93.5601 115.466 82.634 104.539 82.634 91.0597C82.6324 77.5933 93.5718 66.6538 107.04 66.6538C120.518 66.6538 131.446 77.5799 131.446 91.0597C131.446 96.9736 129.341 102.397 125.842 106.621Z" fill="#FFD15C"/>
<path d="M110.485 104.56C110.485 106.407 108.909 108.028 107.062 108.028C105.08 108.028 103.594 106.407 103.594 104.56C103.594 102.668 105.08 101.092 107.062 101.092C108.909 101.092 110.485 102.669 110.485 104.56ZM109.63 96.0025C109.63 97.3989 108.098 97.9844 107.017 97.9844C105.576 97.9844 104.36 97.3989 104.36 96.0025C104.36 90.6426 103.729 82.9407 103.729 77.5805C103.729 75.8239 105.171 74.833 107.017 74.833C108.774 74.833 110.26 75.8238 110.26 77.5805C110.26 82.9405 109.63 90.6425 109.63 96.0025Z" fill="#F9EED7"/>
<path d="M79.2257 70.5277C76.9539 72.3038 76.9122 73.5433 76.9122 75.6913C76.9122 76.4764 76.4992 77.3848 74.475 77.3848C72.7814 77.3848 72.2031 76.7653 72.2031 74.6171C72.2031 71.0645 73.773 69.3709 74.9708 68.3382C76.3341 67.1815 78.6474 65.9009 78.6474 63.6702C78.6474 61.7701 76.995 60.8611 74.9295 60.8611C70.7161 60.8611 71.6246 64.042 69.3941 64.042C68.2788 64.042 66.9155 63.2985 66.9155 61.6872C66.9155 59.4567 69.4768 56.1518 75.0536 56.1518C80.3412 56.1518 83.8523 59.0848 83.8523 62.9678C83.8523 66.8508 80.3412 69.6601 79.2257 70.5277ZM77.6973 83.4162C77.6973 85.1097 76.2926 86.5969 74.5164 86.5969C72.7403 86.5969 71.3769 85.1097 71.3769 83.4162C71.3769 81.6812 72.7816 80.2353 74.5164 80.2353C76.2513 80.2353 77.6973 81.6812 77.6973 83.4162Z" fill="#F9EED7"/>
<defs>
<filter id="filter0_d" x="0" y="0" width="188" height="188" filterUnits="userSpaceOnUse" color-interpolation-filters="sRGB">
<feFlood flood-opacity="0" result="BackgroundImageFix"/>
<feColorMatrix in="SourceAlpha" type="matrix" values="0 0 0 0 0 0 0 0 0 0 0 0 0 0 0 0 0 0 127 0"/>
<feOffset dy="4"/>
<feGaussianBlur stdDeviation="18"/>
<feColorMatrix type="matrix" values="0 0 0 0 0.958333 0 0 0 0 0.958333 0 0 0 0 0.958333 0 0 0 1 0"/>
<feBlend mode="normal" in2="BackgroundImageFix" result="effect1_dropShadow"/>
<feBlend mode="normal" in="SourceGraphic" in2="effect1_dropShadow" result="shape"/>
</filter>
</defs>
</svg>
