<svg width="188" height="188" viewBox="0 0 188 188" fill="none" xmlns="http://www.w3.org/2000/svg">
<g filter="url(#filter0_d)">
<rect x="36" y="32" width="116" height="116" rx="20" fill="white"/>
</g>
<g clip-path="url(#clip0)">
<path d="M53 116.752V56.4089C53 55.4976 53.7387 54.759 54.6499 54.759H133.35C134.261 54.759 135 55.4976 135 56.4089V116.752C135 117.663 134.261 118.402 133.35 118.402H54.6499C53.7387 118.402 53 117.663 53 116.752Z" fill="#FED23A"/>
<path d="M58.0618 113.353H129.938V59.8087H58.0618V113.353Z" fill="#FFF9E9"/>
<path d="M123.339 59.8087H129.938V113.353H123.339V59.8087Z" fill="#FFF4D6"/>
<path d="M67.8099 71.4042H110.468C111.151 71.4042 111.705 70.8501 111.705 70.1667C111.705 69.4834 111.151 68.9293 110.468 68.9293H67.8099C67.1264 68.9293 66.5725 69.4834 66.5725 70.1667C66.5725 70.8501 67.1264 71.4042 67.8099 71.4042Z" fill="#FAE19E"/>
<path d="M120.19 76.4557H67.8099C67.1264 76.4557 66.5725 77.0097 66.5725 77.6931C66.5725 78.3765 67.1264 78.9305 67.8099 78.9305H120.19C120.874 78.9305 121.428 78.3765 121.428 77.6931C121.428 77.0097 120.873 76.4557 120.19 76.4557Z" fill="#FAE19E"/>
<path d="M97.5699 83.9822H67.8099C67.1264 83.9822 66.5725 84.5362 66.5725 85.2196C66.5725 85.903 67.1264 86.4571 67.8099 86.4571H97.5699C98.2534 86.4571 98.8073 85.903 98.8073 85.2196C98.8073 84.5362 98.2533 83.9822 97.5699 83.9822Z" fill="#FAE19E"/>
<path d="M88.8591 102.454C86.7587 102.46 84.6584 102.464 82.5581 102.468C81.8835 102.469 81.2086 102.47 80.534 102.47C80.0177 102.471 79.4606 102.562 79.0243 102.229C78.5361 101.856 78.3682 101.329 78.2565 100.749C78.0144 99.4927 76.2022 99.6527 75.8701 100.749C75.7231 101.235 74.9806 102.625 74.332 102.511C73.9884 102.451 73.8382 101.921 73.7112 101.646C73.4639 101.112 73.2837 100.545 73.1294 99.9778C72.478 97.5798 72.348 95.0761 71.9405 92.6329C71.7042 91.2162 69.5447 91.6167 69.5099 92.9619C69.399 97.2469 68.6984 101.473 67.173 105.489C66.6069 106.98 68.9984 107.624 69.5594 106.147C70.1476 104.599 70.6145 103.013 70.9768 101.404C71.1712 101.99 71.403 102.565 71.6859 103.125C72.4086 104.553 73.8824 105.398 75.4594 104.763C76.0222 104.536 76.5356 104.14 76.9727 103.657C77.0344 103.728 77.0966 103.799 77.1616 103.864C78.3617 105.076 79.9404 104.946 81.5103 104.944C83.9599 104.941 86.4095 104.935 88.8592 104.929C90.4514 104.924 90.4544 102.449 88.8591 102.454Z" fill="#54B1FF"/>
<path d="M116.255 125.241L112.708 123.591L109.161 125.241V103.957H116.255V125.241Z" fill="#FFABE7"/>
<path d="M112.708 108.072C111.456 108.072 110.636 105.941 109.548 105.489C108.42 105.02 106.34 105.928 105.49 105.076C104.639 104.224 105.546 102.141 105.078 101.011C104.627 99.9204 102.5 99.0992 102.5 97.8451C102.5 96.5912 104.627 95.7701 105.078 94.6795C105.546 93.5491 104.639 91.4658 105.49 90.6139C106.34 89.7621 108.42 90.6704 109.548 90.2016C110.636 89.7494 111.456 87.6187 112.708 87.6187C113.96 87.6187 114.779 89.7494 115.868 90.2016C116.996 90.6704 119.076 89.7621 119.926 90.6141C120.776 91.466 119.87 93.5493 120.338 94.6796C120.789 95.7701 122.916 96.5912 122.916 97.8453C122.916 99.0992 120.789 99.9204 120.338 101.011C119.87 102.141 120.776 104.225 119.926 105.076C119.076 105.928 116.996 105.02 115.868 105.489C114.779 105.941 113.96 108.072 112.708 108.072Z" fill="#FF6ED4"/>
<path d="M120.338 94.6796C119.87 93.5493 120.776 91.4659 119.926 90.6141C119.076 89.7623 116.996 90.6704 115.868 90.2016C114.779 89.7494 113.96 87.6187 112.708 87.6187C111.456 87.6187 110.636 89.7494 109.548 90.2016C109.503 90.2203 109.456 90.2361 109.408 90.2506C110.561 90.6001 112.51 89.7961 113.326 90.6141C114.177 91.4659 113.27 93.5493 113.738 94.6796C114.189 95.77 116.316 96.5912 116.316 97.8453C116.316 99.0994 114.189 99.9205 113.738 101.011C113.27 102.141 114.177 104.225 113.326 105.076C112.51 105.894 110.561 105.09 109.408 105.44C109.456 105.454 109.503 105.47 109.548 105.489C110.636 105.941 111.456 108.072 112.708 108.072C113.96 108.072 114.779 105.941 115.868 105.489C116.996 105.02 119.076 105.928 119.926 105.076C120.776 104.225 119.869 102.141 120.337 101.011C120.789 99.9205 122.916 99.0994 122.916 97.8453C122.916 96.5912 120.789 95.77 120.338 94.6796Z" fill="#FF5CCF"/>
<path d="M112.708 101.441C114.694 101.441 116.304 99.8312 116.304 97.8453C116.304 95.8594 114.694 94.2495 112.708 94.2495C110.722 94.2495 109.112 95.8594 109.112 97.8453C109.112 99.8312 110.722 101.441 112.708 101.441Z" fill="#FFABE7"/>
</g>
<defs>
<filter id="filter0_d" x="0" y="0" width="188" height="188" filterUnits="userSpaceOnUse" color-interpolation-filters="sRGB">
<feFlood flood-opacity="0" result="BackgroundImageFix"/>
<feColorMatrix in="SourceAlpha" type="matrix" values="0 0 0 0 0 0 0 0 0 0 0 0 0 0 0 0 0 0 127 0"/>
<feOffset dy="4"/>
<feGaussianBlur stdDeviation="18"/>
<feColorMatrix type="matrix" values="0 0 0 0 0.958333 0 0 0 0 0.958333 0 0 0 0 0.958333 0 0 0 1 0"/>
<feBlend mode="normal" in2="BackgroundImageFix" result="effect1_dropShadow"/>
<feBlend mode="normal" in="SourceGraphic" in2="effect1_dropShadow" result="shape"/>
</filter>
<clipPath id="clip0">
<rect width="82" height="82" fill="white" transform="translate(53 49)"/>
</clipPath>
</defs>
</svg>
