<svg width="188" height="188" viewBox="0 0 188 188" fill="none" xmlns="http://www.w3.org/2000/svg">
<g filter="url(#filter0_d)">
<rect x="36" y="32" width="116" height="116" rx="20" fill="white"/>
</g>
<path d="M114.82 49H73.1797C69.2057 49 65.9727 52.2331 65.9727 56.207V87.7578C65.9727 91.7318 69.2057 94.9648 73.1797 94.9648H114.82C118.794 94.9648 122.027 91.7318 122.027 87.7578V56.207C122.027 52.2331 118.794 49 114.82 49Z" fill="#6C6C6C"/>
<path d="M114.82 49H94V94.9648H114.82C118.794 94.9648 122.027 91.7318 122.027 87.7578V56.207C122.027 52.2331 118.794 49 114.82 49Z" fill="#404040"/>
<path d="M102.383 67.1641L93.4072 60.955C92.1928 60.1152 90.6258 60.0189 89.3175 60.7047C88.0095 61.3905 87.197 62.7339 87.197 64.2107V76.5526C87.197 78.0246 88.0058 79.3659 89.3076 80.0532C89.8899 80.3605 90.5243 80.5127 91.1566 80.5125C91.9383 80.5125 92.7168 80.2801 93.3888 79.8209L102.365 73.6879C103.442 72.9522 104.086 71.7345 104.09 70.4305C104.093 69.1268 103.455 67.9056 102.383 67.1641Z" fill="#FFDA2D"/>
<path d="M102.383 67.1641L94 61.3652V79.4033L102.365 73.6879C103.442 72.9522 104.086 71.7345 104.09 70.4305C104.093 69.1268 103.455 67.9056 102.383 67.1641Z" fill="#FDBF00"/>
<path d="M125.65 97.3172C124.013 96.0068 121.873 95.2852 119.625 95.2852C114.768 95.2852 110.816 98.6619 110.816 102.812V113.062C110.816 114.389 111.892 115.465 113.219 115.465H126.031C127.358 115.465 128.434 114.389 128.434 113.062V102.812C128.434 100.735 127.419 98.7322 125.65 97.3172Z" fill="#90CC1C"/>
<path d="M126.031 115.465C127.358 115.465 128.434 114.389 128.434 113.062V102.812C128.434 100.735 127.419 98.7322 125.65 97.3171C124.013 96.0068 121.873 95.2852 119.625 95.2852V115.465H126.031Z" fill="#66BB00"/>
<path d="M100.025 97.3172C98.3876 96.0068 96.2476 95.2852 94 95.2852C89.1429 95.2852 85.1914 98.6619 85.1914 102.812V113.062C85.1914 114.389 86.267 115.465 87.5938 115.465H100.406C101.733 115.465 102.809 114.389 102.809 113.062V102.812C102.809 100.735 101.794 98.7322 100.025 97.3172Z" fill="#FF712F"/>
<path d="M100.406 115.465C101.733 115.465 102.809 114.389 102.809 113.062V102.812C102.809 100.735 101.794 98.7322 100.025 97.3171C98.3876 96.0068 96.2476 95.2852 94 95.2852V115.465H100.406Z" fill="#FF4C04"/>
<path d="M74.4002 97.3172C72.7626 96.0068 70.6226 95.2852 68.375 95.2852C63.5179 95.2852 59.5664 98.6619 59.5664 102.812V113.062C59.5664 114.389 60.642 115.465 61.9688 115.465H74.7812C76.108 115.465 77.1836 114.389 77.1836 113.062V102.812C77.1836 100.735 76.169 98.7322 74.4002 97.3172Z" fill="#27D8F6"/>
<path d="M74.7812 115.465C76.108 115.465 77.1836 114.389 77.1836 113.062V102.812C77.1836 100.735 76.169 98.7322 74.4002 97.3171C72.7626 96.0068 70.6226 95.2852 68.375 95.2852V115.465H74.7812Z" fill="#3AAAFF"/>
<path d="M127.633 110.66H60.3672C56.3932 110.66 53.1602 113.893 53.1602 117.867V123.793C53.1602 127.767 56.3932 131 60.3672 131H127.633C131.607 131 134.84 127.767 134.84 123.793V117.867C134.84 113.893 131.607 110.66 127.633 110.66Z" fill="#FFDA2D"/>
<path d="M127.633 110.66H94V131H127.633C131.607 131 134.84 127.767 134.84 123.793V117.867C134.84 113.893 131.607 110.66 127.633 110.66Z" fill="#FDBF00"/>
<path d="M119.625 100.09C123.782 100.09 127.152 96.7197 127.152 92.5625C127.152 88.4053 123.782 85.0352 119.625 85.0352C115.468 85.0352 112.098 88.4053 112.098 92.5625C112.098 96.7197 115.468 100.09 119.625 100.09Z" fill="#FED2A4"/>
<path d="M127.152 92.5625C127.152 88.4119 123.776 85.0352 119.625 85.0352V100.09C123.776 100.09 127.152 96.7131 127.152 92.5625Z" fill="#FFBD86"/>
<path d="M94 100.09C98.1572 100.09 101.527 96.7197 101.527 92.5625C101.527 88.4053 98.1572 85.0352 94 85.0352C89.8428 85.0352 86.4727 88.4053 86.4727 92.5625C86.4727 96.7197 89.8428 100.09 94 100.09Z" fill="#FED2A4"/>
<path d="M101.527 92.5625C101.527 88.4119 98.1506 85.0352 94 85.0352V100.09C98.1506 100.09 101.527 96.7131 101.527 92.5625Z" fill="#FFBD86"/>
<path d="M68.375 100.09C72.5322 100.09 75.9023 96.7197 75.9023 92.5625C75.9023 88.4053 72.5322 85.0352 68.375 85.0352C64.2178 85.0352 60.8477 88.4053 60.8477 92.5625C60.8477 96.7197 64.2178 100.09 68.375 100.09Z" fill="#FED2A4"/>
<path d="M75.9023 92.5625C75.9023 88.4119 72.5256 85.0352 68.375 85.0352V100.09C72.5256 100.09 75.9023 96.7131 75.9023 92.5625Z" fill="#FFBD86"/>
<defs>
<filter id="filter0_d" x="0" y="0" width="188" height="188" filterUnits="userSpaceOnUse" color-interpolation-filters="sRGB">
<feFlood flood-opacity="0" result="BackgroundImageFix"/>
<feColorMatrix in="SourceAlpha" type="matrix" values="0 0 0 0 0 0 0 0 0 0 0 0 0 0 0 0 0 0 127 0"/>
<feOffset dy="4"/>
<feGaussianBlur stdDeviation="18"/>
<feColorMatrix type="matrix" values="0 0 0 0 0.958333 0 0 0 0 0.958333 0 0 0 0 0.958333 0 0 0 1 0"/>
<feBlend mode="normal" in2="BackgroundImageFix" result="effect1_dropShadow"/>
<feBlend mode="normal" in="SourceGraphic" in2="effect1_dropShadow" result="shape"/>
</filter>
</defs>
</svg>
