<svg width="1075" height="1046" viewBox="0 0 1075 1046" fill="none" xmlns="http://www.w3.org/2000/svg">
<path d="M730.297 -221.231C863.148 -271.639 1001.32 -136.342 1081.35 -18.9353C1144.07 73.0675 1094.37 187.628 1084.64 298.55C1075.24 405.739 1108.48 529.563 1027.06 599.92C939.45 675.636 811.365 658.018 698.462 632.286C570.448 603.11 396.988 579.181 371.205 450.441C345.669 322.938 542.983 276.751 604.291 162.076C671.006 37.2881 597.998 -171.033 730.297 -221.231Z" fill="#FFF2F4"/>
<path d="M749.803 30.4813C793.236 21.6255 832.987 41.441 866.791 73.928C900.588 106.408 928.204 151.347 947.229 192.093C961.936 223.59 958.808 255.81 949.705 288.891C945.447 304.365 939.9 319.966 934.289 335.746C933.9 336.839 933.511 337.933 933.122 339.028C927.128 355.904 921.163 372.975 916.789 390.176C912.559 406.812 909.905 424.357 907.398 441.804C907.184 443.297 906.97 444.788 906.757 446.278C904.474 462.239 902.212 478.049 898.876 493.061C891.582 525.884 879.225 554.526 850.702 572.061C819.818 591.046 784.972 594.638 749.268 589.998C713.543 585.356 677.076 572.487 643.063 558.681C635.359 555.554 627.382 552.419 619.257 549.226C586.55 536.371 551.46 522.58 522.285 504.635C485.891 482.25 459.151 453.67 457.674 412.845C456.222 372.695 486.611 350.314 524.626 329.583C531.614 325.773 538.867 322.014 546.2 318.214C558.655 311.76 571.337 305.188 583.324 298.048C602.419 286.674 620.034 273.706 632.741 257.075C646.549 239.005 655.309 216.785 662.077 193.469C666.195 179.283 669.608 164.559 672.962 150.086C675.104 140.843 677.223 131.703 679.487 122.869C691.196 77.1742 706.881 39.2331 749.803 30.4813Z" stroke="white" stroke-width="3.23607"/>
<path d="M746.882 171.15C773.401 165.743 797.693 177.835 818.386 197.721C839.074 217.603 855.986 245.12 867.64 270.079C876.621 289.314 874.719 309 869.145 329.255C866.537 338.731 863.14 348.286 859.701 357.959C859.462 358.628 859.224 359.298 858.986 359.969C855.313 370.311 851.653 380.784 848.97 391.337C846.373 401.547 844.746 412.311 843.209 423.004C843.078 423.918 842.947 424.831 842.816 425.744C841.417 435.529 840.032 445.21 837.989 454.403C833.523 474.499 825.968 491.982 808.563 502.681C789.69 514.283 768.389 516.484 746.538 513.644C724.671 510.803 702.342 502.925 681.499 494.464C676.772 492.546 671.879 490.622 666.897 488.664C646.852 480.786 625.369 472.343 607.506 461.356C585.225 447.651 568.912 430.19 568.011 405.278C567.127 380.818 585.624 367.159 608.931 354.449C613.205 352.119 617.647 349.817 622.14 347.489C629.779 343.53 637.564 339.495 644.915 335.117C656.628 328.14 667.452 320.174 675.266 309.948C683.753 298.841 689.131 285.191 693.283 270.891C695.808 262.193 697.902 253.155 699.96 244.278C701.273 238.614 702.57 233.016 703.955 227.613C711.133 199.599 720.721 176.484 746.882 171.15Z" stroke="white" stroke-width="2.42705"/>
<path d="M741.479 280.177C754.805 277.46 767.071 283.517 777.611 293.647C788.147 303.772 796.78 317.809 802.737 330.568C807.255 340.243 806.317 350.17 803.475 360.501C802.144 365.337 800.409 370.217 798.644 375.181C798.522 375.522 798.401 375.864 798.279 376.207C796.396 381.507 794.511 386.9 793.128 392.341C791.788 397.61 790.95 403.158 790.162 408.638C790.095 409.106 790.028 409.573 789.961 410.04C789.243 415.061 788.536 420.003 787.494 424.692C785.216 434.94 781.394 443.709 772.675 449.069C763.15 454.924 752.378 456.052 741.261 454.607C730.128 453.16 718.738 449.146 708.062 444.812C705.624 443.822 703.105 442.832 700.545 441.826C690.272 437.788 679.322 433.484 670.213 427.881C658.855 420.896 650.697 412.091 650.245 399.613C649.806 387.466 658.947 380.621 670.917 374.094C673.084 372.912 675.351 371.737 677.651 370.545C681.581 368.508 685.605 366.423 689.385 364.171C695.416 360.579 701.04 356.449 705.113 351.118C709.53 345.338 712.313 338.258 714.449 330.899C715.746 326.431 716.829 321.761 717.888 317.193C718.56 314.292 719.223 311.433 719.925 308.693C723.611 294.309 728.456 282.832 741.479 280.177Z" stroke="white" stroke-width="2.42705"/>
<path d="M668.486 -122.812C742.864 -137.978 810.863 -104.021 868.577 -48.5564C926.282 6.89969 973.406 83.5969 1005.86 153.104C1031.04 207.032 1025.66 262.165 1010.12 318.628C1002.86 345.033 993.393 371.653 983.831 398.546C983.167 400.413 982.503 402.281 981.839 404.15C971.62 432.921 961.462 461.994 954.015 491.279C946.814 519.597 942.295 549.471 938.021 579.216C937.655 581.76 937.291 584.302 936.928 586.843C933.036 614.049 929.176 641.029 923.482 666.651C911.032 722.675 889.904 771.745 841.025 801.793C788.187 834.273 728.598 840.397 667.625 832.474C606.625 824.547 544.387 802.58 486.39 779.039C473.275 773.715 459.688 768.375 445.846 762.935C390.083 741.019 330.183 717.478 280.385 686.849C218.26 648.638 172.42 599.732 169.89 529.77C167.396 460.834 219.628 422.483 284.41 387.157C296.351 380.645 308.73 374.23 321.235 367.75C342.451 356.756 364.03 345.574 384.45 333.411C416.97 314.04 446.906 291.989 468.486 263.748C491.943 233.049 506.846 195.271 518.375 155.556C525.392 131.383 531.198 106.329 536.912 81.676C540.565 65.9159 544.179 50.3201 548.047 35.2238C568.002 -42.6491 594.829 -107.794 668.486 -122.812Z" stroke="white" stroke-width="4.04509"/>
</svg>
