<svg width="36" height="36" viewBox="0 0 36 36" fill="none" xmlns="http://www.w3.org/2000/svg">
<g clip-path="url(#clip0)">
<path d="M17.75 35.5C27.5531 35.5 35.5 27.5531 35.5 17.75C35.5 7.94695 27.5531 0 17.75 0C7.94695 0 0 7.94695 0 17.75C0 27.5531 7.94695 35.5 17.75 35.5Z" fill="#122894"/>
<path d="M17.8246 31.4729C25.3623 31.4729 31.4727 25.3624 31.4727 17.8247C31.4727 10.2871 25.3623 4.17664 17.8246 4.17664C10.287 4.17664 4.17651 10.2871 4.17651 17.8247C4.17651 25.3624 10.287 31.4729 17.8246 31.4729Z" stroke="white" stroke-width="1.19328" stroke-miterlimit="10"/>
<path d="M22.7963 22.2888C22.3742 23.1972 21.4568 23.9147 20.532 24.0012C19.9399 24.0564 19.3313 23.852 18.8674 23.4448C19.1389 22.614 19.4939 22.0248 19.2821 21.1552C19.1165 20.4795 18.4796 19.7054 18.229 19.061C18.5676 18.1407 19.0956 17.2994 19.6147 16.4776C19.828 16.139 20.0443 15.7959 20.2456 15.4454C20.6305 15.8571 21.0138 16.2717 21.3763 16.7073C21.3151 16.7759 21.2555 16.8445 21.1958 16.9146C20.796 17.377 20.4067 17.8722 20.1815 18.4688C19.9264 19.1445 19.8996 19.9321 20.1084 20.6272C20.3441 20.0037 20.884 19.6114 21.424 19.3444C21.8521 19.1311 22.304 18.97 22.7127 18.715C22.8172 18.9357 22.9111 19.1624 22.9887 19.3921C22.9872 19.3892 22.9857 19.3862 22.9842 19.3847C23.1722 20.384 23.2184 21.3804 22.7963 22.2888Z" fill="white"/>
<path d="M17.5263 11.8673C17.0296 11.3795 16.7388 11.0544 16.1854 9.69104C15.7722 10.856 15.453 12.5146 15.6603 13.7333L15.7812 13.6124C16.3629 13.0307 16.9446 12.449 17.5263 11.8673Z" fill="white"/>
<path d="M23.5523 19.5191C23.5508 19.5161 23.5493 19.5131 23.5463 19.5101C23.7865 20.6721 23.8447 21.8295 23.3047 22.8871C22.7647 23.9431 21.5909 24.7784 20.408 24.8784C19.6503 24.9425 18.8732 24.7053 18.2795 24.231C18.2706 24.2221 18.2601 24.2146 18.2497 24.2072C17.0907 23.257 16.8028 21.5432 17.1534 20.0859C17.2324 19.7592 17.3368 19.443 17.4621 19.1327C17.8962 18.0618 18.5704 17.0848 19.2341 16.1287C19.5086 15.7349 19.783 15.3351 20.0411 14.9279C20.5915 14.0628 21.0673 13.1574 21.297 12.1655C21.6356 10.7052 21.2254 8.98392 20.0486 8.05316C19.6831 9.78938 18.8896 11.3317 17.7053 12.6547C17.7053 12.6562 17.7038 12.6577 17.7023 12.6592C17.0952 13.3379 16.3956 13.939 15.6886 14.5312C14.3059 15.6872 12.8963 16.8103 12.1043 18.4034C11.266 20.0903 11.275 22.1666 12.0998 23.8581C12.9247 25.5511 14.5431 26.8294 16.3747 27.2694C18.2064 27.7094 20.2156 27.3082 21.7564 26.2253C22.817 25.4795 23.6642 24.4055 24.0326 23.1615C24.401 21.9235 24.2549 20.6049 23.5523 19.5191Z" fill="white"/>
<path d="M22.9169 18.09C22.8498 18.1273 22.7797 18.1587 22.7096 18.1855C22.4396 18.2914 22.1503 18.3406 21.8698 18.4212C21.5178 18.5226 21.1554 18.6926 20.9615 19.0193C20.8899 18.6136 20.9689 18.178 21.1792 17.8245C21.3657 17.5113 21.6431 17.2712 21.925 17.0489C21.9668 17.0161 22.01 16.9818 22.0518 16.949C22.292 16.761 22.5336 16.5731 22.7335 16.3389C22.9677 16.063 23.1377 15.6916 23.1228 15.3261C23.5926 15.6259 23.8 16.1002 23.7746 16.6805C23.7522 17.2622 23.4107 17.8201 22.9169 18.09Z" fill="white"/>
</g>
<defs>
<clipPath id="clip0">
<rect width="35.5" height="35.5" fill="white"/>
</clipPath>
</defs>
</svg>
